# xmcd
#
# Track frame offsets:
#	183
#	18473
#	32295
#	46263
#	59783
#	71690
#	87040
#	102138
#	118683
#	133820
#	147538
#	160708
#
# Disc length: 2334 seconds
#
# Revision: 1
# Processed by: cddbd v1.5.2PL0 Copyright (c) Steve Scherf et al.
# Submitted via: audiograbber 1.83.01
#
DISCID=a3091c0c
DTITLE=John Brack Presents  - The Best Of New Country
DYEAR=1987
DGENRE=Country
TTITLE0=John Brack and Billie Jo Spears - The Wonder Of My Life
TTITLE1=Dan Seals - Three Time Loser
TTITLE2=Sawyer Brown - Savin' The Honey For The Honeymoon
TTITLE3=T. Graham Brown - I Wish That I Could Hurt That Way Again
TTITLE4=Don Williams - We Got Love
TTITLE5=Dobie Gray - A Night In The Life Of A Country Boy
TTITLE6=Bobby Bare - Real Good
TTITLE7=Mel McDaniel - Memphis Might As Well Be On The Moon
TTITLE8=Marie Osmond and Paul Davis - You're Still New To Me
TTITLE9=Jerry Reed - Old Fashioned Hearts
TTITLE10=Tanya Tucker - One Love At A Time
TTITLE11=New Grass Revival - Lonely Rider
EXTD=Digitally remastered\nMade in Switzerland
EXTT0=
EXTT1=
EXTT2=
EXTT3=
EXTT4=
EXTT5=
EXTT6=
EXTT7=
EXTT8=
EXTT9=
EXTT10=
EXTT11=
PLAYORDER=
